<mxfile host="Electron" modified="2024-07-02T15:07:55.676Z" agent="Mozilla/5.0 (X11; Linux x86_64) AppleWebKit/537.36 (KHTML, like Gecko) draw.io/24.6.4 Chrome/124.0.6367.207 Electron/30.0.6 Safari/537.36" etag="Sfa7TUsH6Wlsk2xYRFu5" version="24.6.4" type="device">
  <diagram name="Page-1" id="Rwarl7Y5ku8nu6i06Xhg">
    <mxGraphModel dx="1364" dy="843" grid="1" gridSize="10" guides="1" tooltips="1" connect="1" arrows="1" fold="1" page="1" pageScale="1" pageWidth="1169" pageHeight="827" math="0" shadow="0">
      <root>
        <mxCell id="0" />
        <mxCell id="1" parent="0" />
        <mxCell id="8GhN0i_gsUZqHvNfEPgC-14" value="" style="group" vertex="1" connectable="0" parent="1">
          <mxGeometry x="110" y="330" width="270" height="280" as="geometry" />
        </mxCell>
        <mxCell id="8GhN0i_gsUZqHvNfEPgC-1" value="internal_users.yml" style="rounded=0;whiteSpace=wrap;html=1;fillColor=#fff2cc;strokeColor=#d6b656;" vertex="1" parent="8GhN0i_gsUZqHvNfEPgC-14">
          <mxGeometry width="270" height="30" as="geometry" />
        </mxCell>
        <mxCell id="8GhN0i_gsUZqHvNfEPgC-5" style="edgeStyle=orthogonalEdgeStyle;rounded=0;orthogonalLoop=1;jettySize=auto;html=1;exitX=1;exitY=0.5;exitDx=0;exitDy=0;entryX=0;entryY=0.5;entryDx=0;entryDy=0;" edge="1" parent="8GhN0i_gsUZqHvNfEPgC-14" source="8GhN0i_gsUZqHvNfEPgC-2" target="8GhN0i_gsUZqHvNfEPgC-4">
          <mxGeometry relative="1" as="geometry" />
        </mxCell>
        <mxCell id="8GhN0i_gsUZqHvNfEPgC-9" style="edgeStyle=orthogonalEdgeStyle;rounded=0;orthogonalLoop=1;jettySize=auto;html=1;entryX=0;entryY=0.5;entryDx=0;entryDy=0;" edge="1" parent="8GhN0i_gsUZqHvNfEPgC-14" source="8GhN0i_gsUZqHvNfEPgC-2" target="8GhN0i_gsUZqHvNfEPgC-6">
          <mxGeometry relative="1" as="geometry" />
        </mxCell>
        <mxCell id="8GhN0i_gsUZqHvNfEPgC-10" style="edgeStyle=orthogonalEdgeStyle;rounded=0;orthogonalLoop=1;jettySize=auto;html=1;entryX=0;entryY=0.5;entryDx=0;entryDy=0;" edge="1" parent="8GhN0i_gsUZqHvNfEPgC-14" source="8GhN0i_gsUZqHvNfEPgC-2" target="8GhN0i_gsUZqHvNfEPgC-7">
          <mxGeometry relative="1" as="geometry" />
        </mxCell>
        <mxCell id="8GhN0i_gsUZqHvNfEPgC-11" style="edgeStyle=orthogonalEdgeStyle;rounded=0;orthogonalLoop=1;jettySize=auto;html=1;entryX=0;entryY=0.5;entryDx=0;entryDy=0;" edge="1" parent="8GhN0i_gsUZqHvNfEPgC-14" source="8GhN0i_gsUZqHvNfEPgC-2" target="8GhN0i_gsUZqHvNfEPgC-8">
          <mxGeometry relative="1" as="geometry" />
        </mxCell>
        <mxCell id="8GhN0i_gsUZqHvNfEPgC-13" style="edgeStyle=orthogonalEdgeStyle;rounded=0;orthogonalLoop=1;jettySize=auto;html=1;entryX=0;entryY=0.5;entryDx=0;entryDy=0;" edge="1" parent="8GhN0i_gsUZqHvNfEPgC-14" source="8GhN0i_gsUZqHvNfEPgC-2" target="8GhN0i_gsUZqHvNfEPgC-12">
          <mxGeometry relative="1" as="geometry" />
        </mxCell>
        <mxCell id="8GhN0i_gsUZqHvNfEPgC-2" value="user" style="rounded=0;whiteSpace=wrap;html=1;" vertex="1" parent="8GhN0i_gsUZqHvNfEPgC-14">
          <mxGeometry y="50" width="100" height="30" as="geometry" />
        </mxCell>
        <mxCell id="8GhN0i_gsUZqHvNfEPgC-4" value="backend roles" style="rounded=0;whiteSpace=wrap;html=1;" vertex="1" parent="8GhN0i_gsUZqHvNfEPgC-14">
          <mxGeometry x="170" y="50" width="100" height="30" as="geometry" />
        </mxCell>
        <mxCell id="8GhN0i_gsUZqHvNfEPgC-6" value="attributes" style="rounded=0;whiteSpace=wrap;html=1;" vertex="1" parent="8GhN0i_gsUZqHvNfEPgC-14">
          <mxGeometry x="170" y="100" width="100" height="30" as="geometry" />
        </mxCell>
        <mxCell id="8GhN0i_gsUZqHvNfEPgC-7" value="hash" style="rounded=0;whiteSpace=wrap;html=1;" vertex="1" parent="8GhN0i_gsUZqHvNfEPgC-14">
          <mxGeometry x="170" y="150" width="100" height="30" as="geometry" />
        </mxCell>
        <mxCell id="8GhN0i_gsUZqHvNfEPgC-8" value="reserved" style="rounded=0;whiteSpace=wrap;html=1;" vertex="1" parent="8GhN0i_gsUZqHvNfEPgC-14">
          <mxGeometry x="170" y="200" width="100" height="30" as="geometry" />
        </mxCell>
        <mxCell id="8GhN0i_gsUZqHvNfEPgC-12" value="description" style="rounded=0;whiteSpace=wrap;html=1;" vertex="1" parent="8GhN0i_gsUZqHvNfEPgC-14">
          <mxGeometry x="170" y="250" width="100" height="30" as="geometry" />
        </mxCell>
        <mxCell id="8GhN0i_gsUZqHvNfEPgC-28" value="" style="group" vertex="1" connectable="0" parent="1">
          <mxGeometry x="410" y="330" width="270" height="180" as="geometry" />
        </mxCell>
        <mxCell id="8GhN0i_gsUZqHvNfEPgC-16" value="roles.yml" style="rounded=0;whiteSpace=wrap;html=1;fillColor=#fff2cc;strokeColor=#d6b656;container=0;" vertex="1" parent="8GhN0i_gsUZqHvNfEPgC-28">
          <mxGeometry width="270" height="30" as="geometry" />
        </mxCell>
        <mxCell id="8GhN0i_gsUZqHvNfEPgC-17" style="edgeStyle=orthogonalEdgeStyle;rounded=0;orthogonalLoop=1;jettySize=auto;html=1;exitX=1;exitY=0.5;exitDx=0;exitDy=0;entryX=0;entryY=0.5;entryDx=0;entryDy=0;" edge="1" parent="8GhN0i_gsUZqHvNfEPgC-28" source="8GhN0i_gsUZqHvNfEPgC-22" target="8GhN0i_gsUZqHvNfEPgC-23">
          <mxGeometry relative="1" as="geometry" />
        </mxCell>
        <mxCell id="8GhN0i_gsUZqHvNfEPgC-18" style="edgeStyle=orthogonalEdgeStyle;rounded=0;orthogonalLoop=1;jettySize=auto;html=1;entryX=0;entryY=0.5;entryDx=0;entryDy=0;" edge="1" parent="8GhN0i_gsUZqHvNfEPgC-28" source="8GhN0i_gsUZqHvNfEPgC-22" target="8GhN0i_gsUZqHvNfEPgC-24">
          <mxGeometry relative="1" as="geometry" />
        </mxCell>
        <mxCell id="8GhN0i_gsUZqHvNfEPgC-20" style="edgeStyle=orthogonalEdgeStyle;rounded=0;orthogonalLoop=1;jettySize=auto;html=1;entryX=0;entryY=0.5;entryDx=0;entryDy=0;" edge="1" parent="8GhN0i_gsUZqHvNfEPgC-28" source="8GhN0i_gsUZqHvNfEPgC-22" target="8GhN0i_gsUZqHvNfEPgC-26">
          <mxGeometry relative="1" as="geometry" />
        </mxCell>
        <mxCell id="8GhN0i_gsUZqHvNfEPgC-22" value="role" style="rounded=0;whiteSpace=wrap;html=1;container=0;" vertex="1" parent="8GhN0i_gsUZqHvNfEPgC-28">
          <mxGeometry y="50" width="100" height="30" as="geometry" />
        </mxCell>
        <mxCell id="8GhN0i_gsUZqHvNfEPgC-23" value="cluster permissions" style="rounded=0;whiteSpace=wrap;html=1;container=0;" vertex="1" parent="8GhN0i_gsUZqHvNfEPgC-28">
          <mxGeometry x="170" y="50" width="100" height="30" as="geometry" />
        </mxCell>
        <mxCell id="8GhN0i_gsUZqHvNfEPgC-24" value="index permissions" style="rounded=0;whiteSpace=wrap;html=1;container=0;" vertex="1" parent="8GhN0i_gsUZqHvNfEPgC-28">
          <mxGeometry x="170" y="100" width="100" height="30" as="geometry" />
        </mxCell>
        <mxCell id="8GhN0i_gsUZqHvNfEPgC-26" value="reserved" style="rounded=0;whiteSpace=wrap;html=1;container=0;" vertex="1" parent="8GhN0i_gsUZqHvNfEPgC-28">
          <mxGeometry x="170" y="150" width="100" height="30" as="geometry" />
        </mxCell>
        <mxCell id="8GhN0i_gsUZqHvNfEPgC-30" value="roles_mapping.yml" style="rounded=0;whiteSpace=wrap;html=1;fillColor=#fff2cc;strokeColor=#d6b656;container=0;" vertex="1" parent="1">
          <mxGeometry x="710" y="330" width="270" height="30" as="geometry" />
        </mxCell>
        <mxCell id="8GhN0i_gsUZqHvNfEPgC-31" style="edgeStyle=orthogonalEdgeStyle;rounded=0;orthogonalLoop=1;jettySize=auto;html=1;exitX=1;exitY=0.5;exitDx=0;exitDy=0;entryX=0;entryY=0.5;entryDx=0;entryDy=0;" edge="1" parent="1" source="8GhN0i_gsUZqHvNfEPgC-36" target="8GhN0i_gsUZqHvNfEPgC-37">
          <mxGeometry relative="1" as="geometry" />
        </mxCell>
        <mxCell id="8GhN0i_gsUZqHvNfEPgC-32" style="edgeStyle=orthogonalEdgeStyle;rounded=0;orthogonalLoop=1;jettySize=auto;html=1;entryX=0;entryY=0.5;entryDx=0;entryDy=0;" edge="1" parent="1" source="8GhN0i_gsUZqHvNfEPgC-36" target="8GhN0i_gsUZqHvNfEPgC-38">
          <mxGeometry relative="1" as="geometry" />
        </mxCell>
        <mxCell id="8GhN0i_gsUZqHvNfEPgC-36" value="role" style="rounded=0;whiteSpace=wrap;html=1;container=0;" vertex="1" parent="1">
          <mxGeometry x="710" y="380" width="100" height="30" as="geometry" />
        </mxCell>
        <mxCell id="8GhN0i_gsUZqHvNfEPgC-37" value="users" style="rounded=0;whiteSpace=wrap;html=1;container=0;" vertex="1" parent="1">
          <mxGeometry x="880" y="380" width="100" height="30" as="geometry" />
        </mxCell>
        <mxCell id="8GhN0i_gsUZqHvNfEPgC-38" value="backend_roles" style="rounded=0;whiteSpace=wrap;html=1;container=0;" vertex="1" parent="1">
          <mxGeometry x="880" y="430" width="100" height="30" as="geometry" />
        </mxCell>
        <mxCell id="8GhN0i_gsUZqHvNfEPgC-42" value="roles -&amp;gt; permissions" style="text;html=1;align=center;verticalAlign=middle;whiteSpace=wrap;rounded=0;" vertex="1" parent="1">
          <mxGeometry x="410" y="280" width="270" height="30" as="geometry" />
        </mxCell>
        <mxCell id="8GhN0i_gsUZqHvNfEPgC-43" value="roles -&amp;gt; users &amp;amp; back-end roles" style="text;html=1;align=center;verticalAlign=middle;whiteSpace=wrap;rounded=0;" vertex="1" parent="1">
          <mxGeometry x="710" y="280" width="270" height="30" as="geometry" />
        </mxCell>
      </root>
    </mxGraphModel>
  </diagram>
</mxfile>
